<?xml version="1.0" standalone="no"?>
<!DOCTYPE svg PUBLIC "-//W3C//DTD SVG 20010904//EN"
 "http://www.w3.org/TR/2001/REC-SVG-20010904/DTD/svg10.dtd">
<svg version="1.0" xmlns="http://www.w3.org/2000/svg"
 width="40.000000pt" height="43.000000pt" viewBox="0 0 40.000000 43.000000"
 preserveAspectRatio="xMidYMid meet">
<metadata>
Created by potrace 1.11, written by Peter Selinger 2001-2013
</metadata>
<g transform="translate(0.000000,43.000000) scale(0.100000,-0.100000)"
fill="#000000" stroke="none">
<path d="M159 406 c-112 -40 -167 -150 -125 -251 15 -35 73 -105 88 -105 14 0
9 95 -7 116 -22 29 -19 96 6 127 25 32 87 51 122 38 67 -26 96 -102 62 -161
-15 -27 -20 -110 -7 -110 16 0 71 66 86 102 21 50 20 86 -4 135 -24 50 -78 96
-129 112 -46 13 -47 13 -92 -3z"/>
<path d="M185 278 c-40 -23 -47 -66 -15 -96 18 -17 18 -21 5 -72 -21 -80 -22
-80 35 -80 56 0 56 0 35 79 -13 51 -13 56 5 79 25 31 25 43 -1 76 -22 29 -34
31 -64 14z"/>
</g>
</svg>
